<svg width="16" height="14" viewBox="0 0 16 14" fill="none" xmlns="http://www.w3.org/2000/svg">
<path d="M9.4209 0.436453L15.6084 6.3427C15.7842 6.51848 15.8896 6.72942 15.8896 6.97552C15.8896 7.18645 15.7842 7.39739 15.6084 7.57317L9.4209 13.4794C9.10449 13.7958 8.54199 13.7958 8.22559 13.4443C7.90918 13.1279 7.90918 12.5654 8.26074 12.249L12.9365 7.81927H0.983398C0.491211 7.81927 0.139648 7.43255 0.139648 6.97552C0.139648 6.48333 0.491211 6.13177 0.983398 6.13177H12.9365L8.26074 1.66692C7.90918 1.35052 7.90918 0.788015 8.22559 0.471609C8.54199 0.120047 9.06934 0.120047 9.4209 0.436453Z" fill="#2859E0"/>
</svg>
