<svg width="16" height="15" viewBox="0 0 16 15" fill="none" xmlns="http://www.w3.org/2000/svg">
<path d="M6.5791 13.8022L0.391602 7.89596C0.21582 7.72018 0.110352 7.50924 0.110352 7.26314C0.110352 7.05221 0.21582 6.84127 0.391602 6.66549L6.5791 0.759237C6.89551 0.442831 7.45801 0.442831 7.77441 0.794393C8.09082 1.1108 8.09082 1.6733 7.73926 1.98971L3.06348 6.41939L15.0166 6.41939C15.5088 6.41939 15.8604 6.80611 15.8604 7.26314C15.8604 7.75533 15.5088 8.10689 15.0166 8.10689L3.06348 8.10689L7.73926 12.5717C8.09082 12.8881 8.09082 13.4506 7.77441 13.767C7.45801 14.1186 6.93066 14.1186 6.5791 13.8022Z" fill="#2859E0"/>
</svg>
