<svg width="16" height="16" viewBox="0 0 16 16" fill="none" xmlns="http://www.w3.org/2000/svg">
<path d="M14.0571 9.20654C15.0825 9.20654 15.9321 10.0562 15.9321 11.0815V13.4253C15.9321 14.48 15.0825 15.3003 14.0571 15.3003H2.80713C1.75244 15.3003 0.932129 14.48 0.932129 13.4253V11.0815C0.932129 10.0562 1.75244 9.20654 2.80713 9.20654H4.35986L5.76611 10.6128H2.80713C2.54346 10.6128 2.33838 10.8472 2.33838 11.0815V13.4253C2.33838 13.689 2.54346 13.894 2.80713 13.894H14.0571C14.2915 13.894 14.5259 13.689 14.5259 13.4253V11.0815C14.5259 10.8472 14.2915 10.6128 14.0571 10.6128H11.0688L12.4751 9.20654H14.0571ZM13.5884 12.2534C13.5884 12.6636 13.2661 12.9565 12.8853 12.9565C12.4751 12.9565 12.1821 12.6636 12.1821 12.2534C12.1821 11.8726 12.4751 11.5503 12.8853 11.5503C13.2661 11.5503 13.5884 11.8726 13.5884 12.2534ZM7.93408 11.1108L3.92041 7.12646C3.62744 6.86279 3.62744 6.42334 3.92041 6.13037C4.18408 5.8667 4.62354 5.8667 4.9165 6.13037L7.729 8.94287V1.00342C7.729 0.622559 8.02197 0.300293 8.43213 0.300293C8.81299 0.300293 9.13525 0.622559 9.13525 1.00342V8.94287L11.9185 6.15967C12.1821 5.8667 12.6216 5.8667 12.8853 6.15967C13.1782 6.42334 13.1782 6.86279 12.8853 7.12646L8.90088 11.1108C8.78369 11.2573 8.60791 11.3159 8.43213 11.3159C8.22705 11.3159 8.05127 11.2573 7.93408 11.1108Z" fill="#F8FAFE"/>
</svg>
