<svg width="39" height="39" viewBox="0 0 39 39" fill="none" xmlns="http://www.w3.org/2000/svg">
<path d="M26.8125 6.5C28.1328 6.5 29.25 7.56641 29.25 8.9375V30.875C29.25 31.7383 28.4883 32.5 27.625 32.5H21.9375V28.4375C21.9375 27.0664 20.8203 26 19.5 26C18.1289 26 17.0625 27.0664 17.0625 28.4375V32.5H11.375C10.4609 32.5 9.75 31.7383 9.75 30.875V8.9375C9.75 7.56641 10.8164 6.5 12.1875 6.5H26.8125ZM17.875 21.8867V20.2617C17.875 19.8555 17.4688 19.4492 17.0625 19.4492H15.4375C14.9805 19.4492 14.625 19.8555 14.625 20.2617V21.8867C14.625 22.3438 14.9805 22.6992 15.4375 22.6992H17.0625C17.4688 22.6992 17.875 22.3438 17.875 21.8867ZM17.875 17.0117V15.3867C17.875 14.9805 17.4688 14.5742 17.0625 14.5742H15.4375C14.9805 14.5742 14.625 14.9805 14.625 15.3867V17.0117C14.625 17.4688 14.9805 17.8242 15.4375 17.8242H17.0625C17.4688 17.8242 17.875 17.4688 17.875 17.0117ZM17.875 12.1367V10.5117C17.875 10.1055 17.4688 9.69922 17.0625 9.69922H15.4375C14.9805 9.69922 14.625 10.1055 14.625 10.5117V12.1367C14.625 12.543 14.9805 12.9492 15.4375 12.9492H17.0625C17.4688 12.9492 17.875 12.5938 17.875 12.1367ZM24.375 21.8867V20.2617C24.375 19.8555 23.9688 19.4492 23.5625 19.4492H21.9375C21.4805 19.4492 21.125 19.8555 21.125 20.2617V21.8867C21.125 22.3438 21.4805 22.6992 21.9375 22.6992H23.5625C23.9688 22.6992 24.375 22.3438 24.375 21.8867ZM24.375 17.0117V15.3867C24.375 14.9805 23.9688 14.5742 23.5625 14.5742H21.9375C21.4805 14.5742 21.125 14.9805 21.125 15.3867V17.0117C21.125 17.4688 21.4805 17.8242 21.9375 17.8242H23.5625C23.9688 17.8242 24.375 17.4688 24.375 17.0117ZM24.375 12.1367V10.5117C24.375 10.1055 23.9688 9.69922 23.5625 9.69922H21.9375C21.4805 9.69922 21.125 10.1055 21.125 10.5117V12.1367C21.125 12.543 21.4805 12.9492 21.9375 12.9492H23.5625C23.9688 12.9492 24.375 12.5938 24.375 12.1367Z" fill="#2859E0"/>
</svg>
