<svg width="39" height="39" viewBox="0 0 39 39" fill="none" xmlns="http://www.w3.org/2000/svg">
<path d="M34.8867 13.4507C35.3945 13.6538 35.75 14.1108 35.75 14.6187C35.75 15.1772 35.3945 15.6343 34.8867 15.8374L20.5664 20.9663C19.8555 21.2202 19.0938 21.2202 18.3828 20.9663L8.73438 17.5132C8.125 18.1733 7.66797 18.9858 7.46484 19.8999C7.82031 20.1538 8.125 20.6108 8.125 21.1187C8.125 21.6265 7.87109 22.0835 7.51562 22.3882L8.73438 29.9546C8.83594 30.4624 8.42969 30.8687 7.97266 30.8687H4.97656C4.51953 30.8687 4.11328 30.4624 4.21484 29.9546L5.43359 22.3882C5.07812 22.0835 4.875 21.6265 4.875 21.1187C4.875 20.4585 5.28125 19.8999 5.83984 19.646C6.04297 18.6304 6.5 17.7163 7.10938 16.9038L4.0625 15.8374C3.55469 15.6343 3.25 15.1772 3.25 14.6187C3.25 14.1108 3.55469 13.6538 4.0625 13.4507L18.332 8.32178C19.043 8.06787 19.8047 8.06787 20.5156 8.32178L34.8867 13.4507ZM21.0742 22.4897L28.4883 19.8491L29.25 27.1108C29.25 29.1929 24.832 30.8687 19.5 30.8687C14.0664 30.8687 9.75 29.1929 9.75 27.1108L10.4609 19.8491L17.875 22.4897C18.3828 22.6929 18.9414 22.7437 19.5 22.7437C20.0078 22.7437 20.5664 22.6929 21.0742 22.4897Z" fill="#2859E0"/>
</svg>
