<svg width="39" height="39" viewBox="0 0 39 39" fill="none" xmlns="http://www.w3.org/2000/svg">
<path d="M22.75 24.375V21.9375H32.5V29.25C32.5 30.5703 31.332 31.6875 30.0625 31.6875H8.9375C7.61719 31.6875 6.5 30.5703 6.5 29.25V21.9375H16.25V24.375C16.25 24.832 16.6055 25.1875 17.0625 25.1875H21.9375C22.3438 25.1875 22.75 24.832 22.75 24.375ZM30.0625 12.1875C31.332 12.1875 32.5 13.3555 32.5 14.625V20.3125H6.5V14.625C6.5 13.3555 7.61719 12.1875 8.9375 12.1875H13V9.75C13 8.48047 14.1172 7.3125 15.4375 7.3125H23.5625C24.832 7.3125 26 8.48047 26 9.75V12.1875H30.0625ZM23.5625 12.1875V9.75H15.4375V12.1875H23.5625Z" fill="#2859E0"/>
</svg>
