<svg width="27" height="25" viewBox="0 0 27 25" fill="none" xmlns="http://www.w3.org/2000/svg">
<path d="M23.6196 5.45874C25.397 5.45874 26.8696 6.9314 26.8696 8.70874V21.7087C26.8696 23.5369 25.397 24.9587 23.6196 24.9587H4.11963C2.2915 24.9587 0.869629 23.5369 0.869629 21.7087V8.70874C0.869629 6.9314 2.2915 5.45874 4.11963 5.45874H7.36963V3.02124C7.36963 1.70093 8.43604 0.58374 9.80713 0.58374H17.9321C19.2524 0.58374 20.3696 1.70093 20.3696 3.02124V5.45874H23.6196ZM8.99463 3.02124V5.45874H18.7446V3.02124C18.7446 2.61499 18.3384 2.20874 17.9321 2.20874H9.80713C9.3501 2.20874 8.99463 2.61499 8.99463 3.02124ZM25.2446 21.7087V15.2087H17.9321V18.4587C17.9321 18.9158 17.5259 19.2712 17.1196 19.2712H10.6196C10.1626 19.2712 9.80713 18.9158 9.80713 18.4587V15.2087H2.49463V21.7087C2.49463 22.6228 3.20557 23.3337 4.11963 23.3337H23.6196C24.4829 23.3337 25.2446 22.6228 25.2446 21.7087ZM11.4321 17.6462H16.3071V15.2087H11.4321V17.6462ZM25.2446 13.5837V8.70874C25.2446 7.84546 24.4829 7.08374 23.6196 7.08374H4.11963C3.20557 7.08374 2.49463 7.84546 2.49463 8.70874V13.5837H25.2446Z" fill="white"/>
</svg>
