<svg width="16" height="22" viewBox="0 0 16 22" fill="none" xmlns="http://www.w3.org/2000/svg">
<path d="M7.90234 0.651367C12.25 0.651367 15.7773 4.17871 15.7773 8.52637C15.7773 11.7256 14.6699 12.5869 8.68164 21.2412C8.47656 21.5283 8.18945 21.6514 7.90234 21.6514C7.57422 21.6514 7.28711 21.5283 7.08203 21.2412C1.09375 12.6279 0.0273438 11.7256 0.0273438 8.52637C0.0273438 4.17871 3.51367 0.651367 7.90234 0.651367ZM7.90234 20.0928C13.6445 11.7666 14.4648 11.1514 14.4648 8.52637C14.4648 4.91699 11.5117 1.96387 7.90234 1.96387C4.25195 1.96387 1.33984 4.91699 1.33984 8.52637C1.33984 11.1514 2.11914 11.8076 7.90234 20.0928ZM7.90234 5.24512C9.70703 5.24512 11.1836 6.68066 11.1836 8.52637C11.1836 10.3311 9.70703 11.8076 7.90234 11.8076C6.05664 11.8076 4.62109 10.3311 4.62109 8.52637C4.62109 6.68066 6.05664 5.24512 7.90234 5.24512ZM7.90234 10.4951C8.96875 10.4951 9.87109 9.59277 9.87109 8.52637C9.87109 7.41895 8.96875 6.55762 7.90234 6.55762C6.79492 6.55762 5.93359 7.41895 5.93359 8.52637C5.93359 9.59277 6.79492 10.4951 7.90234 10.4951Z" fill="black"/>
</svg>
