<svg width="28" height="92" viewBox="0 0 28 92" fill="none" xmlns="http://www.w3.org/2000/svg">
<g opacity="0.45">
<path d="M26.2763 2.85844C25.6569 2.85844 25.1494 2.35087 25.1494 1.73134C25.1494 1.10434 25.6569 0.604248 26.2763 0.604248C26.9031 0.604248 27.4031 1.11181 27.4031 1.73134C27.4031 2.35087 26.9031 2.85844 26.2763 2.85844Z" fill="#2859E0"/>
<path d="M26.2763 11.136C25.6569 11.136 25.1494 10.6285 25.1494 10.0089C25.1494 9.3894 25.6569 8.88184 26.2763 8.88184C26.9031 8.88184 27.4031 9.3894 27.4031 10.0089C27.4031 10.6285 26.9031 11.136 26.2763 11.136Z" fill="#2859E0"/>
<path d="M26.2763 19.4141C25.6569 19.4141 25.1494 18.9065 25.1494 18.287C25.1494 17.6675 25.6569 17.1599 26.2763 17.1599C26.9031 17.1599 27.4031 17.6675 27.4031 18.287C27.4031 18.9065 26.9031 19.4141 26.2763 19.4141Z" fill="#2859E0"/>
<path d="M26.2763 27.6919C25.6569 27.6919 25.1494 27.1843 25.1494 26.5648C25.1494 25.9453 25.6569 25.4377 26.2763 25.4377C26.9031 25.4377 27.4031 25.9453 27.4031 26.5648C27.4031 27.1843 26.9031 27.6919 26.2763 27.6919Z" fill="#2859E0"/>
<path d="M17.9999 2.85844C17.3805 2.85844 16.873 2.35087 16.873 1.73134C16.873 1.10434 17.3805 0.604248 17.9999 0.604248C18.6268 0.604248 19.1268 1.11181 19.1268 1.73134C19.1268 2.35087 18.6193 2.85844 17.9999 2.85844Z" fill="#2859E0"/>
<path d="M17.9999 11.136C17.3805 11.136 16.873 10.6285 16.873 10.0089C16.873 9.3894 17.3805 8.88184 17.9999 8.88184C18.6268 8.88184 19.1268 9.3894 19.1268 10.0089C19.1268 10.6285 18.6193 11.136 17.9999 11.136Z" fill="#2859E0"/>
<path d="M17.9999 19.4141C17.3805 19.4141 16.873 18.9065 16.873 18.287C16.873 17.6675 17.3805 17.1599 17.9999 17.1599C18.6268 17.1599 19.1268 17.6675 19.1268 18.287C19.1268 18.9065 18.6193 19.4141 17.9999 19.4141Z" fill="#2859E0"/>
<path d="M17.9999 27.6919C17.3805 27.6919 16.873 27.1843 16.873 26.5648C16.873 25.9453 17.3805 25.4377 17.9999 25.4377C18.6268 25.4377 19.1268 25.9453 19.1268 26.5648C19.1268 27.1843 18.6193 27.6919 17.9999 27.6919Z" fill="#2859E0"/>
<path d="M9.72353 2.85844C9.10414 2.85844 8.59668 2.35087 8.59668 1.73134C8.59668 1.10434 9.10414 0.604248 9.72353 0.604248C10.3429 0.604248 10.8504 1.11181 10.8504 1.73134C10.8504 2.35087 10.3429 2.85844 9.72353 2.85844Z" fill="#2859E0"/>
<path d="M9.72353 11.136C9.10414 11.136 8.59668 10.6285 8.59668 10.0089C8.59668 9.3894 9.10414 8.88184 9.72353 8.88184C10.3429 8.88184 10.8504 9.3894 10.8504 10.0089C10.8504 10.6285 10.3429 11.136 9.72353 11.136Z" fill="#2859E0"/>
<path d="M9.72353 19.4141C9.10414 19.4141 8.59668 18.9065 8.59668 18.287C8.59668 17.6675 9.10414 17.1599 9.72353 17.1599C10.3429 17.1599 10.8504 17.6675 10.8504 18.287C10.8504 18.9065 10.3429 19.4141 9.72353 19.4141Z" fill="#2859E0"/>
<path d="M9.72353 27.6919C9.10414 27.6919 8.59668 27.1843 8.59668 26.5648C8.59668 25.9453 9.10414 25.4377 9.72353 25.4377C10.3429 25.4377 10.8504 25.9453 10.8504 26.5648C10.8504 27.1843 10.3429 27.6919 9.72353 27.6919Z" fill="#2859E0"/>
<path d="M1.44814 2.85844C0.828745 2.85844 0.321289 2.35087 0.321289 1.73134C0.321289 1.10434 0.828745 0.604248 1.44814 0.604248C2.06754 0.604248 2.57499 1.11181 2.57499 1.73134C2.57499 2.35087 2.06754 2.85844 1.44814 2.85844Z" fill="#2859E0"/>
<path d="M1.44814 11.136C0.828745 11.136 0.321289 10.6285 0.321289 10.0089C0.321289 9.3894 0.828745 8.88184 1.44814 8.88184C2.06754 8.88184 2.57499 9.3894 2.57499 10.0089C2.57499 10.6285 2.06754 11.136 1.44814 11.136Z" fill="#2859E0"/>
<path d="M1.44814 19.4141C0.828745 19.4141 0.321289 18.9065 0.321289 18.287C0.321289 17.6675 0.828745 17.1599 1.44814 17.1599C2.06754 17.1599 2.57499 17.6675 2.57499 18.287C2.57499 18.9065 2.06754 19.4141 1.44814 19.4141Z" fill="#2859E0"/>
<path d="M1.44814 27.6919C0.828745 27.6919 0.321289 27.1843 0.321289 26.5648C0.321289 25.9453 0.828745 25.4377 1.44814 25.4377C2.06754 25.4377 2.57499 25.9453 2.57499 26.5648C2.57499 27.1843 2.06754 27.6919 1.44814 27.6919Z" fill="#2859E0"/>
<path d="M26.2763 34.7564C25.6569 34.7564 25.1494 34.2488 25.1494 33.6293C25.1494 33.0023 25.6569 32.5022 26.2763 32.5022C26.9031 32.5022 27.4031 33.0098 27.4031 33.6293C27.4031 34.2488 26.9031 34.7564 26.2763 34.7564Z" fill="#2859E0"/>
<path d="M26.2763 43.034C25.6569 43.034 25.1494 42.5264 25.1494 41.9069C25.1494 41.2873 25.6569 40.7798 26.2763 40.7798C26.9031 40.7798 27.4031 41.2873 27.4031 41.9069C27.4031 42.5264 26.9031 43.034 26.2763 43.034Z" fill="#2859E0"/>
<path d="M26.2763 51.3123C25.6569 51.3123 25.1494 50.8047 25.1494 50.1852C25.1494 49.5657 25.6569 49.0581 26.2763 49.0581C26.9031 49.0581 27.4031 49.5657 27.4031 50.1852C27.4031 50.8047 26.9031 51.3123 26.2763 51.3123Z" fill="#2859E0"/>
<path d="M26.2763 59.5899C25.6569 59.5899 25.1494 59.0823 25.1494 58.4628C25.1494 57.8432 25.6569 57.3357 26.2763 57.3357C26.9031 57.3357 27.4031 57.8432 27.4031 58.4628C27.4031 59.0823 26.9031 59.5899 26.2763 59.5899Z" fill="#2859E0"/>
<path d="M17.9999 34.7564C17.3805 34.7564 16.873 34.2488 16.873 33.6293C16.873 33.0023 17.3805 32.5022 17.9999 32.5022C18.6268 32.5022 19.1268 33.0098 19.1268 33.6293C19.1268 34.2488 18.6193 34.7564 17.9999 34.7564Z" fill="#2859E0"/>
<path d="M17.9999 43.034C17.3805 43.034 16.873 42.5264 16.873 41.9069C16.873 41.2873 17.3805 40.7798 17.9999 40.7798C18.6268 40.7798 19.1268 41.2873 19.1268 41.9069C19.1268 42.5264 18.6193 43.034 17.9999 43.034Z" fill="#2859E0"/>
<path d="M17.9999 51.3123C17.3805 51.3123 16.873 50.8047 16.873 50.1852C16.873 49.5657 17.3805 49.0581 17.9999 49.0581C18.6268 49.0581 19.1268 49.5657 19.1268 50.1852C19.1268 50.8047 18.6193 51.3123 17.9999 51.3123Z" fill="#2859E0"/>
<path d="M17.9999 59.5899C17.3805 59.5899 16.873 59.0823 16.873 58.4628C16.873 57.8432 17.3805 57.3357 17.9999 57.3357C18.6268 57.3357 19.1268 57.8432 19.1268 58.4628C19.1268 59.0823 18.6193 59.5899 17.9999 59.5899Z" fill="#2859E0"/>
<path d="M9.72353 34.7564C9.10414 34.7564 8.59668 34.2488 8.59668 33.6293C8.59668 33.0023 9.10414 32.5022 9.72353 32.5022C10.3429 32.5022 10.8504 33.0098 10.8504 33.6293C10.8504 34.2488 10.3429 34.7564 9.72353 34.7564Z" fill="#2859E0"/>
<path d="M9.72353 43.034C9.10414 43.034 8.59668 42.5264 8.59668 41.9069C8.59668 41.2873 9.10414 40.7798 9.72353 40.7798C10.3429 40.7798 10.8504 41.2873 10.8504 41.9069C10.8504 42.5264 10.3429 43.034 9.72353 43.034Z" fill="#2859E0"/>
<path d="M9.72353 51.3123C9.10414 51.3123 8.59668 50.8047 8.59668 50.1852C8.59668 49.5657 9.10414 49.0581 9.72353 49.0581C10.3429 49.0581 10.8504 49.5657 10.8504 50.1852C10.8504 50.8047 10.3429 51.3123 9.72353 51.3123Z" fill="#2859E0"/>
<path d="M9.72353 59.5899C9.10414 59.5899 8.59668 59.0823 8.59668 58.4628C8.59668 57.8432 9.10414 57.3357 9.72353 57.3357C10.3429 57.3357 10.8504 57.8432 10.8504 58.4628C10.8504 59.0823 10.3429 59.5899 9.72353 59.5899Z" fill="#2859E0"/>
<path d="M1.44814 34.7564C0.828745 34.7564 0.321289 34.2488 0.321289 33.6293C0.321289 33.0023 0.828745 32.5022 1.44814 32.5022C2.06754 32.5022 2.57499 33.0098 2.57499 33.6293C2.57499 34.2488 2.06754 34.7564 1.44814 34.7564Z" fill="#2859E0"/>
<path d="M1.44814 43.034C0.828745 43.034 0.321289 42.5264 0.321289 41.9069C0.321289 41.2873 0.828745 40.7798 1.44814 40.7798C2.06754 40.7798 2.57499 41.2873 2.57499 41.9069C2.57499 42.5264 2.06754 43.034 1.44814 43.034Z" fill="#2859E0"/>
<path d="M1.44814 51.3123C0.828745 51.3123 0.321289 50.8047 0.321289 50.1852C0.321289 49.5657 0.828745 49.0581 1.44814 49.0581C2.06754 49.0581 2.57499 49.5657 2.57499 50.1852C2.57499 50.8047 2.06754 51.3123 1.44814 51.3123Z" fill="#2859E0"/>
<path d="M1.44814 59.5899C0.828745 59.5899 0.321289 59.0823 0.321289 58.4628C0.321289 57.8432 0.828745 57.3357 1.44814 57.3357C2.06754 57.3357 2.57499 57.8432 2.57499 58.4628C2.57499 59.0823 2.06754 59.5899 1.44814 59.5899Z" fill="#2859E0"/>
<path d="M26.2763 66.6546C25.6569 66.6546 25.1494 66.147 25.1494 65.5275C25.1494 64.9005 25.6569 64.4004 26.2763 64.4004C26.9031 64.4004 27.4031 64.908 27.4031 65.5275C27.4031 66.147 26.9031 66.6546 26.2763 66.6546Z" fill="#2859E0"/>
<path d="M26.2763 74.9324C25.6569 74.9324 25.1494 74.4248 25.1494 73.8053C25.1494 73.1858 25.6569 72.6782 26.2763 72.6782C26.9031 72.6782 27.4031 73.1858 27.4031 73.8053C27.4031 74.4248 26.9031 74.9324 26.2763 74.9324Z" fill="#2859E0"/>
<path d="M26.2763 83.2105C25.6569 83.2105 25.1494 82.7029 25.1494 82.0834C25.1494 81.4638 25.6569 80.9563 26.2763 80.9563C26.9031 80.9563 27.4031 81.4638 27.4031 82.0834C27.4031 82.7029 26.9031 83.2105 26.2763 83.2105Z" fill="#2859E0"/>
<path d="M26.2763 91.4881C25.6569 91.4881 25.1494 90.9805 25.1494 90.361C25.1494 89.7414 25.6569 89.2339 26.2763 89.2339C26.9031 89.2339 27.4031 89.7414 27.4031 90.361C27.4031 90.9805 26.9031 91.4881 26.2763 91.4881Z" fill="#2859E0"/>
<path d="M17.9999 66.6546C17.3805 66.6546 16.873 66.147 16.873 65.5275C16.873 64.9005 17.3805 64.4004 17.9999 64.4004C18.6268 64.4004 19.1268 64.908 19.1268 65.5275C19.1268 66.147 18.6193 66.6546 17.9999 66.6546Z" fill="#2859E0"/>
<path d="M17.9999 74.9324C17.3805 74.9324 16.873 74.4248 16.873 73.8053C16.873 73.1858 17.3805 72.6782 17.9999 72.6782C18.6268 72.6782 19.1268 73.1858 19.1268 73.8053C19.1268 74.4248 18.6193 74.9324 17.9999 74.9324Z" fill="#2859E0"/>
<path d="M17.9999 83.2105C17.3805 83.2105 16.873 82.7029 16.873 82.0834C16.873 81.4638 17.3805 80.9563 17.9999 80.9563C18.6268 80.9563 19.1268 81.4638 19.1268 82.0834C19.1268 82.7029 18.6193 83.2105 17.9999 83.2105Z" fill="#2859E0"/>
<path d="M17.9999 91.4881C17.3805 91.4881 16.873 90.9805 16.873 90.361C16.873 89.7414 17.3805 89.2339 17.9999 89.2339C18.6268 89.2339 19.1268 89.7414 19.1268 90.361C19.1268 90.9805 18.6193 91.4881 17.9999 91.4881Z" fill="#2859E0"/>
<path d="M9.72353 66.6546C9.10414 66.6546 8.59668 66.147 8.59668 65.5275C8.59668 64.9005 9.10414 64.4004 9.72353 64.4004C10.3429 64.4004 10.8504 64.908 10.8504 65.5275C10.8504 66.147 10.3429 66.6546 9.72353 66.6546Z" fill="#2859E0"/>
<path d="M9.72353 74.9324C9.10414 74.9324 8.59668 74.4248 8.59668 73.8053C8.59668 73.1858 9.10414 72.6782 9.72353 72.6782C10.3429 72.6782 10.8504 73.1858 10.8504 73.8053C10.8504 74.4248 10.3429 74.9324 9.72353 74.9324Z" fill="#2859E0"/>
<path d="M9.72353 83.2105C9.10414 83.2105 8.59668 82.7029 8.59668 82.0834C8.59668 81.4638 9.10414 80.9563 9.72353 80.9563C10.3429 80.9563 10.8504 81.4638 10.8504 82.0834C10.8504 82.7029 10.3429 83.2105 9.72353 83.2105Z" fill="#2859E0"/>
<path d="M9.72353 91.4881C9.10414 91.4881 8.59668 90.9805 8.59668 90.361C8.59668 89.7414 9.10414 89.2339 9.72353 89.2339C10.3429 89.2339 10.8504 89.7414 10.8504 90.361C10.8504 90.9805 10.3429 91.4881 9.72353 91.4881Z" fill="#2859E0"/>
<path d="M1.44814 66.6546C0.828745 66.6546 0.321289 66.147 0.321289 65.5275C0.321289 64.9005 0.828745 64.4004 1.44814 64.4004C2.06754 64.4004 2.57499 64.908 2.57499 65.5275C2.57499 66.147 2.06754 66.6546 1.44814 66.6546Z" fill="#2859E0"/>
<path d="M1.44814 74.9324C0.828745 74.9324 0.321289 74.4248 0.321289 73.8053C0.321289 73.1858 0.828745 72.6782 1.44814 72.6782C2.06754 72.6782 2.57499 73.1858 2.57499 73.8053C2.57499 74.4248 2.06754 74.9324 1.44814 74.9324Z" fill="#2859E0"/>
<path d="M1.44814 83.2105C0.828745 83.2105 0.321289 82.7029 0.321289 82.0834C0.321289 81.4638 0.828745 80.9563 1.44814 80.9563C2.06754 80.9563 2.57499 81.4638 2.57499 82.0834C2.57499 82.7029 2.06754 83.2105 1.44814 83.2105Z" fill="#2859E0"/>
<path d="M1.44814 91.4881C0.828745 91.4881 0.321289 90.9805 0.321289 90.361C0.321289 89.7414 0.828745 89.2339 1.44814 89.2339C2.06754 89.2339 2.57499 89.7414 2.57499 90.361C2.57499 90.9805 2.06754 91.4881 1.44814 91.4881Z" fill="#2859E0"/>
</g>
</svg>
