<svg width="19" height="19" viewBox="0 0 19 19" fill="none" xmlns="http://www.w3.org/2000/svg">
<path d="M9.57715 0.408203C14.5342 0.408203 18.5771 4.45117 18.5771 9.4082C18.5771 14.4004 14.5342 18.4082 9.57715 18.4082C4.58496 18.4082 0.577148 14.4004 0.577148 9.4082C0.577148 4.45117 4.58496 0.408203 9.57715 0.408203ZM13.6201 7.86133C14.0068 7.47461 14.0068 6.87695 13.6201 6.49023C13.2334 6.10352 12.6357 6.10352 12.249 6.49023L8.45215 10.2871L6.87012 8.74023C6.4834 8.35352 5.88574 8.35352 5.49902 8.74023C5.1123 9.12695 5.1123 9.72461 5.49902 10.1113L7.74902 12.3613C7.9248 12.5723 8.1709 12.6426 8.45215 12.6426C8.69824 12.6426 8.94434 12.5723 9.12012 12.3613L13.6201 7.86133Z" fill="white"/>
</svg>
