<svg width="29" height="29" viewBox="0 0 29 29" fill="none" xmlns="http://www.w3.org/2000/svg">
<path d="M14.9883 0.668213C22.6992 0.668213 28.9883 6.95728 28.9883 14.6682C28.9883 22.4338 22.6992 28.6682 14.9883 28.6682C7.22266 28.6682 0.988281 22.4338 0.988281 14.6682C0.988281 6.95728 7.22266 0.668213 14.9883 0.668213ZM21.2773 12.262C21.8789 11.6604 21.8789 10.7307 21.2773 10.1292C20.6758 9.52759 19.7461 9.52759 19.1445 10.1292L13.2383 16.0354L10.7773 13.6292C10.1758 13.0276 9.24609 13.0276 8.64453 13.6292C8.04297 14.2307 8.04297 15.1604 8.64453 15.762L12.1445 19.262C12.418 19.5901 12.8008 19.6995 13.2383 19.6995C13.6211 19.6995 14.0039 19.5901 14.2773 19.262L21.2773 12.262Z" fill="#1FBA2E"/>
</svg>
