<svg width="13" height="13" viewBox="0 0 13 13" fill="none" xmlns="http://www.w3.org/2000/svg">
<path d="M0.967797 12.2894C0.731749 12.5254 0.377677 12.5254 0.165234 12.2894C0.0472096 12.195 -6.19079e-09 12.0533 0 11.9117C7.22259e-09 11.7465 0.0472096 11.6049 0.165234 11.4868L3.32828 8.32379C2.64374 7.47402 2.26606 6.4118 2.26606 5.27877C2.26606 2.58782 4.46131 0.392578 7.17586 0.392578C9.86681 0.392578 12.0857 2.56422 12.0857 5.27877C12.0857 7.96972 9.8668 10.1886 7.17586 10.1886C6.01922 10.1886 4.95701 9.81089 4.13084 9.12635L0.967797 12.2894ZM7.17586 1.52561C5.07503 1.52561 3.39909 3.20155 3.39909 5.30238C3.39909 7.3796 5.07503 9.07914 7.17586 9.07914C9.25308 9.07914 10.9526 7.3796 10.9526 5.30238C10.9526 3.20155 9.25308 1.52561 7.17586 1.52561Z" fill="#788296"/>
</svg>
