<svg width="16" height="14" viewBox="0 0 16 14" fill="none" xmlns="http://www.w3.org/2000/svg">
<path d="M14.7948 5.85449C15.1464 6.00098 15.3515 6.35254 15.3808 6.7041C15.3808 7.08496 15.1464 7.43652 14.7948 7.58301L1.66981 13.208C1.55263 13.2666 1.43544 13.2959 1.31825 13.2959C1.05458 13.2959 0.790909 13.1787 0.615127 12.9736C0.351455 12.71 0.292862 12.2705 0.468643 11.9189L3.19325 6.7041L0.468643 1.51855C0.292862 1.16699 0.351455 0.727539 0.615127 0.43457C0.790909 0.229492 1.05458 0.141602 1.31825 0.141602C1.43544 0.141602 1.55263 0.170898 1.66981 0.229492L14.7948 5.85449ZM2.31435 2.0459L4.39442 6.00098H11.6015L2.31435 2.0459ZM4.39442 7.40723L2.31435 11.3916L11.6015 7.40723H4.39442Z" fill="#F8FAFE"/>
</svg>
