<svg width="19" height="19" viewBox="0 0 19 19" fill="none" xmlns="http://www.w3.org/2000/svg">
<path d="M9.41113 0.0848389C14.5674 0.0848389 18.7861 4.30359 18.7861 9.45984C18.7861 14.6552 14.4893 18.8348 9.37207 18.8348C4.21582 18.8348 0.0361328 14.6552 0.0361328 9.45984C0.0361328 7.46765 0.661133 5.55359 1.83301 3.91296C2.14551 3.52234 2.73145 3.40515 3.16113 3.71765C3.55176 4.03015 3.66895 4.61609 3.35645 5.04578C2.37988 6.33484 1.91113 7.85828 1.91113 9.45984C1.91113 13.6005 5.27051 16.9598 9.41113 16.9598C13.5127 16.9598 16.9111 13.6005 16.9111 9.45984C16.9111 5.67078 14.0205 2.50671 10.3486 2.03796V4.14734C10.3486 4.69421 9.91895 5.08484 9.41113 5.08484C8.86426 5.08484 8.47363 4.69421 8.47363 4.14734V1.02234C8.47363 0.514526 8.86426 0.0848389 9.41113 0.0848389ZM8.74707 10.1239L5.62207 6.9989C5.27051 6.60828 5.27051 6.02234 5.62207 5.67078C6.0127 5.28015 6.59863 5.28015 6.9502 5.67078L10.0361 8.79578C10.4268 9.14734 10.4268 9.73328 10.0361 10.1239C9.87988 10.2802 9.64551 10.3973 9.37207 10.3973C9.1377 10.3973 8.90332 10.2802 8.74707 10.1239Z" fill="#2859E0"/>
</svg>
